<svg width="178" height="152" viewBox="0 0 178 152" fill="none" xmlns="http://www.w3.org/2000/svg">
<path d="M10 143C23.6836 125.632 40.7395 110.48 55.7222 94.2222C69.1365 79.6663 83.7635 66.7045 97.7778 52.7778C113.664 36.991 131.514 20.9814 145 3" stroke="black" stroke-width="3" stroke-linecap="round"/>
<path d="M4 5C20.3336 18.4512 39.5593 28.4218 56.3889 41.3889C65.8821 48.7033 75.0671 56.341 85.0556 63C98.5669 72.0076 109.87 83.3257 123.056 92.5556C134.936 100.872 143.899 111.939 156.333 119.778C159.442 121.738 161.521 122.994 163.667 125.222C166.522 128.187 171.089 133.696 175 135" stroke="black" stroke-width="3" stroke-linecap="round"/>
<path d="M6 144C11.4592 135.563 24.1658 133.124 30.7778 125.778C34.2291 121.943 37.2971 117.607 40.7778 113.778C47.9263 105.914 51.7 95.7294 59 88C64.1961 82.4982 68.4074 76.1481 73.7778 70.7778C78.5112 66.0444 83.2135 62.3579 88.0556 58C94.4802 52.2179 102.17 47.1545 108.889 41.5556C112.521 38.5286 116.127 35.8733 119.5 32.5C126.26 25.7399 132.918 17.4525 140.5 11.5556C141.613 10.6898 143.852 5.14807 141.444 7.55556C136.916 12.0843 132.457 16.7293 128 21.3889C124.754 24.7827 120.121 27.4915 116.444 30.5C112.627 33.623 109.139 37.5157 105.556 41C100.128 46.2769 94.2672 50.6167 89.2222 56.2222C85.3602 60.5134 82.8161 65.7394 78.5556 70C70.3627 78.1929 60.8102 85.8754 53.2222 94.2222C46.6116 101.494 39.2726 108.51 31.5 114.556C26.2871 118.61 21.7135 126.716 18.5 132.5C17.4167 134.45 12.3976 146.556 10 146.556C9.16477 146.556 11.0898 139.115 11.2222 138.778C12.8217 134.706 16.6446 132.245 20 129.778C26.8478 124.743 34.1864 120.42 40.4444 115.056C45.8798 110.397 47.7275 103.273 52.5 98.5C54.4866 96.5134 56.8511 94.0582 58.5556 91.8889C61.0129 88.7614 65.1122 87.1282 67.5 83.9444C73.2431 76.2869 77.8337 68.1663 84.5 61.5C87.8306 58.1694 89.9626 54.9796 94.1111 52.4444C100.107 48.7802 104.137 41.9985 109 37C112.51 33.3929 115.457 29.5428 119 26C121.698 23.3022 124.752 21.0198 127.222 18C130.015 14.5865 134.775 12.2246 138 9C140.338 6.66157 142.493 4.06298 144.778 1.77778C145.216 1.33985 141.705 8.63661 139.778 10.7778C137.237 13.6005 136.055 15.0106 132.778 17C127.447 20.2364 123.338 24.9007 118.556 29C115.219 31.8597 111.67 35.3304 108.556 38.4444C105.388 41.6121 101.142 46.5162 97.5 48.9444C94.4908 50.9506 92.0588 53.9412 89.5 56.5C87.1337 58.8663 83.5989 62.6149 82.0556 65.4444C74.6211 79.0742 60.8182 87.5303 52 99.7778C44.8062 109.769 33.315 116.678 25.5 126.056C22.8106 129.283 18.8866 133.143 17 136.444C14.4811 140.853 9.60527 145.184 8 150" stroke="black" stroke-width="3" stroke-linecap="round"/>
<path d="M2.99999 8C6.51434 8.21965 3.77936 10.6683 5.55555 12.4444C7.55785 14.4468 10.5735 15.9616 13 17.4444C15.0002 18.6668 18.5702 20.865 21 21C22.3772 21.0765 25.6749 20.3399 26.7778 21.2222C33.679 26.7432 42.12 30.3816 48.9444 35.5C56.8761 41.4488 62.8834 49.108 71.4444 54C73.8985 55.4023 76.8219 57.943 79 60C80.543 61.4573 88.2059 65.8252 83 63.2222C76.0486 59.7465 71.8686 52.2749 65 49.2222C62.7694 48.2309 56.4841 48.3552 55 46.5C53.8976 45.1221 51.5959 44.9316 51.0555 42.5C50.6648 40.7416 49.8958 39.5301 48.5 38.4444C42.0664 33.4406 35.0239 28.3439 27.5 25C23.7142 23.3174 19.8055 21.0248 16 19.2222C13.396 17.9887 10.581 17.5886 7.99999 16.2222C6.20722 15.2731 4.97038 13.2074 2.99999 12.2222C-1.73468 9.85488 8.04039 12.5758 9.99999 13.5556C11.8716 14.4913 14.3751 15.6637 15.7778 17.2222C18.3479 20.0779 22.2104 19.9558 25.5555 22C37.5452 29.327 61.3237 31.7066 65.0555 48.5C66.0875 53.1437 73.8254 54.2958 76.2222 58C77.1495 59.433 79 59.4988 79 61.5C79 63.463 79 65.4259 79 67.3889C79 68.8537 79.4632 64.2946 78.7778 63C78.0094 61.5486 75.9007 61.1206 74.7778 60.2222C71.8849 57.9079 68.7581 55.9114 66 53C64.6284 51.5522 58.3036 40.4895 62 44.5556C66.0448 49.0048 69.7131 52.7179 75 55.2222C79.0926 57.1608 81.8544 60.3309 86.4444 62C88.3841 62.7053 94.414 67.699 94.9444 69.5556C96.1648 73.8267 86.3748 65.986 86 65.7778C85.4898 65.4944 82.1788 62.2656 83 61.4444C84.2593 60.1852 85.5185 63.963 86.7778 65.2222C89.5781 68.0226 92.7789 70.6678 95.5555 73.4444C98.057 75.9459 101.373 80.1813 104.556 82C108.764 84.405 118.322 86.8755 119.944 92.5556C120.657 95.0497 126.135 98.188 128 100.778C129.869 103.374 133.084 105.289 134.778 108C136.426 110.636 140.839 110.871 143.5 113C146.502 115.401 150.497 116.221 154 117.778C160.532 120.681 166.736 126.389 172.5 131C173.105 131.484 173.871 135.685 175.778 133.778C177.218 132.338 174.901 129.51 174 128.556C171.345 125.745 168.424 121.648 164.556 120.944C160.654 120.235 157.667 118.533 154.778 116.222C153.717 115.373 150.509 115.532 149 114.778C147.593 114.074 145.853 113.19 144.778 112.222C141.202 109.004 137.398 108.665 133.5 106.5C125.397 101.998 134.454 105.449 138 107.222C146.076 111.26 153.806 117.988 162.611 119.944C166.686 120.85 164.072 119.17 161.778 119C158.655 118.769 157.046 115.358 154 115C152.183 114.786 151.765 111.866 150.444 111.111C148.734 110.134 147.503 111.379 146 109.5C144.222 107.277 139.581 106.901 137.222 104.778C134.428 102.263 132.778 99.6235 130 97C128.714 95.7855 126.885 95.1082 125.5 94C124.48 93.1837 129.24 94.7337 129.944 95.5556C132.429 98.4538 136.223 100.801 138.222 104C139.984 106.819 145.893 107.417 148.5 109.444C149.846 110.491 154.972 111.578 153.389 110.944C151.159 110.053 149.178 107.178 147.5 105.5C140.616 98.616 130.761 96.689 122.556 92C119.517 90.2637 116.109 88.2072 114.222 85C112.233 81.6186 105.871 78.9962 103 76.4444C102.244 75.7728 100.868 75.8483 99.9444 75.4444C97.8368 74.5223 97.2547 72.7269 95.4444 71.5556C92.8891 69.9021 90.8918 68.4159 88.5 66.5556C85.347 64.1032 82.7806 62.8429 79.5555 61C75.9421 58.9352 72.7722 55.8735 69 53.7778C65.1257 51.6254 60.1737 46.6228 58 43" stroke="black" stroke-width="3" stroke-linecap="round"/>
<path d="M83 64C87.8136 68.8136 92.7021 78.9787 99 81.7778C102.337 83.2608 110.332 82.6574 111 88C111.428 91.4232 120.444 92.5544 121 97C121.416 100.33 131.355 101.71 133 105" stroke="black" stroke-width="3" stroke-linecap="round"/>
</svg>
