<svg width="153" height="133" viewBox="0 0 153 133" fill="none" xmlns="http://www.w3.org/2000/svg">
<path d="M10 61C54.3528 59.6955 98.5728 58 143 58" stroke="black" stroke-width="3" stroke-linecap="round"/>
<path d="M73 5C73 14.0929 72.8564 23.6732 74.0555 32.6667C75.6681 44.7608 78.6048 56.5256 79 68.7778C79.1554 73.5941 80.6016 79.649 81.5 84.5C82.5879 90.3747 82.7801 95.9671 83.0555 101.889C83.3284 107.755 83.5979 117.598 88 122" stroke="black" stroke-width="3" stroke-linecap="round"/>
<path d="M6 66C6.83102 68.2161 17.6431 67 19.3333 67C28.7407 67 38.1481 67 47.5556 67C62.6784 67 77.3088 63.952 92.4444 63.1111C104.596 62.436 116.614 60 128.778 60C135.519 60 155.741 60 149 60" stroke="black" stroke-width="3" stroke-linecap="round"/>
<path d="M72 4C74.2423 26.423 72.7748 49.5406 77.2222 71.7778C80.5439 88.3862 84 105.095 84 122" stroke="black" stroke-width="3" stroke-linecap="round"/>
<path d="M15 61C13.3825 61 4.58837 61.4999 10.4444 63.2222C17.3195 65.2443 23.8614 65 31 65C43.6111 65 56.2222 65 68.8333 65C91.9692 65 114.714 63.7688 137.778 63C142.02 62.8586 146.395 61.5626 150.333 61C151.685 60.8069 147.578 60.3939 146.5 59.5556C145.235 58.572 144.583 57.866 143.5 57C137.833 52.4664 125.039 55 117.944 55C110.586 55 101.758 53.785 94.5556 55.5C85.9456 57.55 76.3376 55.3074 68 57.7778C64.2415 58.8914 57.8716 59 54 59C48.2509 59 42.3564 60.6452 36.6111 61.0556C29.28 61.5792 21.8153 63 14.5556 63C10.8837 63 5.14696 61.902 2 64" stroke="black" stroke-width="3" stroke-linecap="round"/>
<path d="M66 2C66.2371 3.89659 76.5232 3 74.2222 3C72.0178 3 66.1999 1.4732 67.6111 3.16667C69.5803 5.52963 69.5047 9.21308 70.5 12C72.4884 17.5674 71 25.9945 71 31.8333C71 40.7845 70.7593 50.1576 73.2222 58.7778C77.197 72.6893 82 87.6242 82 102C82 107.833 82 113.667 82 119.5C82 120.695 82.5217 123 82 123C79.0493 123 76.5207 116.489 75.2222 114C73.8253 111.323 75 104.966 75 102C75 96.6737 76 91.9107 76 86.7222C76 75.1168 77 63.6311 77 52.1111C77 42.1455 79.3922 30.3485 70.2222 24C65.9707 21.0567 65 16.7742 65 12C65 8.88232 72.663 3.11841 72.9445 4.66667C74.5505 13.4997 72 23.9497 72 33C72 44.4068 71.2941 56.0535 72.5 67.3889C73.3336 75.2248 72.0384 89.3661 77.0556 96.0556C80.4596 100.594 83 105.445 83 111C83 114.603 84.7183 121 80.2222 121C75.1014 121 72.5644 101.396 71.5 96.5C68.9391 84.72 72.5542 78.3602 78.5 69.1111C82.0667 63.563 82.0749 55.9789 79 50C75.4955 43.1857 76 37.2051 76 29.5556C76 25.1998 78.6124 11.2899 74.5 8C72.9935 6.79482 73.3917 5.22923 71 4.22222C69.2511 3.48583 66.5367 3 64.6111 3C62.8997 3 68.0451 4.45331 68.7778 6C70.1717 8.94262 69 14.8399 69 18C69 27.5407 67 36.668 67 46.2222C67 57.6611 68.8344 65.5764 73.5 75.9444C76.3678 82.3173 78.2377 88.6654 80.5 95C82.2677 99.9495 81 106.77 81 112C81 116.723 80.9521 121.034 81.9445 125.5C82.3471 127.312 80.123 133.091 80 131C79.8637 128.683 80 126.321 80 124" stroke="black" stroke-width="3" stroke-linecap="round"/>
</svg>
