<svg width="257" height="236" viewBox="0 0 257 236" fill="none" xmlns="http://www.w3.org/2000/svg">
<path d="M152 2C137.729 8.11626 123.58 21.135 112.5 31.9444C108.16 36.1781 102.377 38.1093 98 42C95.9421 43.8293 98.356 44.6241 100.944 45.0556C105.47 45.8098 109.986 50.4298 113.556 53C120.617 58.0843 126.466 64.3272 133.444 69.4444C136.99 72.0444 142.557 80 147 80" stroke="black" stroke-width="3" stroke-linecap="round"/>
<path d="M151 39C171.098 39 190.493 39.0857 208.944 47.3889C218.012 51.4692 226.592 55.4987 234.556 61.5556C239.984 65.6839 247.842 71.3067 250.444 78C254.634 88.7743 256.24 100.455 254.944 112.111C253.216 127.665 249.347 144.011 243.444 158.5C238.04 171.767 229.96 184.505 222 196.444C212.492 210.707 200.231 218.078 184.5 224.556C171.213 230.027 156.375 232 142 232C125.721 232 110.518 232.78 95.2778 226.389C86.5267 222.719 75.5516 219.873 68 214C61.5805 209.007 54.2144 205.354 47.2223 201.222C34.569 193.745 24.0981 184.729 15 173.222C8.91163 165.522 5.9575 152.766 4.22227 143.222C3.18758 137.531 4.52247 131.614 3.50005 125.889C2.53341 120.476 3.00005 114.705 3.00005 109.222C3.00005 91.7305 7.83124 70.8817 21 58.4444C22.4661 57.0598 28.0908 54.5455 30 54C33.2148 53.0815 35.7004 50.843 38.7778 49.7778C43.3516 48.1945 48.8369 49.0816 53 47" stroke="black" stroke-width="3" stroke-linecap="round"/>
<path d="M153 5C144.016 5.47284 137.867 10.6902 130 13.5C125.412 15.1387 118.483 18.4433 114.778 21.7778C111.317 24.8928 107.638 28.5367 104.556 32.5C103.149 34.3087 104.83 36.6369 102.444 38C101.031 38.8079 96.4599 41.7855 98.4444 42.7778C102.617 44.864 111.49 45.1636 114 49.5556C116.853 54.5478 123.436 59.8802 127.556 64C131.421 67.8655 135.644 73.802 140.5 76.5C145.086 79.0476 146.527 85.7637 151 88" stroke="black" stroke-width="3" stroke-linecap="round"/>
<path d="M50 49C42.2143 49.3707 31.1519 50.8345 24 54.2222C20.4717 55.8935 17.8368 60.0663 15.4444 63.1111C10.0534 69.9724 4.62574 79.3654 2.2222 87.7778C1.01869 91.99 1.99998 97.6102 1.99998 102C1.99998 109.621 1.42333 117.469 2.05553 125.056C3.00949 136.503 7.99998 147.286 7.99998 159" stroke="black" stroke-width="3" stroke-linecap="round"/>
<path d="M5 142C5 151.774 9.18476 162.233 13.7778 170.778C18.0904 178.801 19.0723 187.694 27.4444 191.5C33.02 194.034 38.5511 196.053 44 198.778C48.664 201.11 52.5571 204.723 57 207.5C61.5522 210.345 66.2266 213.121 70.5 216.444C74.5575 219.6 79.3967 220.476 84 222.778C88.7709 225.163 94.7888 227 100 227C102.397 227 114.998 226.996 116 229" stroke="black" stroke-width="3" stroke-linecap="round"/>
<path d="M116 229C137.481 231.148 169.967 240.894 188.444 225.056C196.141 218.458 203.598 215.701 213 211C218.552 208.224 224 205.026 224 198.5C224 193.93 226 190.291 226 186" stroke="black" stroke-width="3" stroke-linecap="round"/>
<path d="M148 38C151.286 38 153.453 40 156.778 40C160.519 40 164.259 40 168 40C175.026 40 179.255 42.6812 185.778 44.7778C195.736 47.9788 206.395 43.7966 215.444 49.5556C222.642 54.1357 239.176 54.8955 243 63.5C244.172 66.1364 246.12 68.0163 247.5 70.5C248.578 72.4405 248.454 74.6172 249.5 76.5C251.89 80.8017 251 86.177 251 91C251 101.2 252 110.955 252 121C252 130.68 248.088 138.356 246.056 147.5C244.507 154.47 241 161.385 241 168.556C241 174.884 237.494 182.562 233.5 187.444C230.064 191.644 227.249 196.438 224 200.5C222.552 202.31 220.495 203.746 218.944 205.556C218.198 206.427 216.848 208.393 215.778 208.778C210.683 210.612 209.354 214.097 206 219" stroke="black" stroke-width="3" stroke-linecap="round"/>
</svg>
