<svg width="203" height="215" viewBox="0 0 203 215" fill="none" xmlns="http://www.w3.org/2000/svg">
<path d="M47 56C47 96.3078 42.3562 140.712 61 178C63.3641 182.728 65.7338 187.623 69.5 191.389C74.7087 196.598 89.0541 194.101 95.1667 193.944C111.03 193.538 124.779 187.904 140 184.556C149.368 182.495 157.889 178.68 164.444 171.5C167.782 167.845 170.09 163.561 173 159.778C174.874 157.342 178.042 155.707 179.778 153.778C180.475 153.003 179.975 150.524 180 149.556C180.125 144.811 181.641 140.195 182 135.444C182.878 123.811 183.696 112.475 180.5 101.111C179.27 96.7386 178.489 91.0636 176.778 87C174.887 82.5093 176.292 76.8148 175.222 72C174.361 68.1261 176.092 59.0457 172 57" stroke="black" stroke-width="3" stroke-linecap="round"/>
<path d="M18 71C18 65.575 16.4776 61.8968 14.9444 56.7222C12.5617 48.6804 11.1311 38.7456 6.55555 31.5555C2.35388 24.9529 14.2639 27 17.6667 27C53.5926 27 89.5185 27 125.444 27C131.919 27 198.829 25.089 199 28C199.388 34.5969 198.256 41.6776 196.5 48C195.22 52.6073 196 58.2189 196 63" stroke="black" stroke-width="3" stroke-linecap="round"/>
<path d="M53 26C50.3639 25.341 49.7263 17.7492 49 15.3889C48.0235 12.2153 45.6816 7.00001 49.6667 7.00001C62.4259 7.00001 75.1852 7.00001 87.9445 7.00001C94.0685 7.00001 99.4902 5.14617 105.444 4.22223C111.084 3.34714 117.242 4.00001 122.944 4.00001C134.79 4.00001 146.177 2.00001 158 2.00001C159.871 2.00001 167.918 0.669287 165.444 4.55556C162.383 9.36623 156 19.1799 156 25" stroke="black" stroke-width="3" stroke-linecap="round"/>
<path d="M86 68V165" stroke="black" stroke-width="3" stroke-linecap="round"/>
<path d="M124 70C124 94.1176 122 118.14 122 142.278C122 152.519 122 162.759 122 173" stroke="black" stroke-width="3" stroke-linecap="round"/>
<path d="M181 127C181 136.315 181 145.63 181 154.944C181 161.326 181.297 167.616 180 173.778C179.127 177.925 180.735 184.275 176.444 185.056C165.26 187.089 152.926 186 141.556 186C130.322 186 119.452 187 108.222 187C95.7615 187 83.9177 185 71.5556 185C66.3334 185 63 181.762 63 188.889C63 198.297 76.8461 194 83.4444 194C110.768 194 137.759 197 165 197" stroke="black" stroke-width="3" stroke-linecap="round"/>
<path d="M122 191C139.537 191 156.902 189 174.444 189C178.514 189 172.222 176.487 172 175.833C169.97 169.861 168 164.297 168 158C168 156.919 167.632 154.111 169.444 154.111C170.502 154.111 169.94 161.629 170.222 162.722C171.254 166.722 174 169.335 174 173.556C174 177.473 172.494 181.19 171.5 184.944C171.276 185.791 170.471 191.651 169.444 191.944C165.134 193.176 158.885 192.135 154.5 191.944C147.002 191.618 139.574 191 132 191C130.185 191 128.37 191 126.556 191C122.575 191 134.894 194.231 135.944 194.389C144.963 195.742 153.913 195.78 162.778 198.222C167.131 199.422 171.769 201 176.333 201C181.368 201 166.354 199.607 161.333 199.222C148.177 198.213 134.381 199.642 121.333 197.778C105.862 195.568 90.317 194.626 75 191.222C72.7645 190.725 68.6551 190.877 66.7778 189.556C62.0705 186.243 59.7369 178.383 57.7778 173.333C54.6384 165.241 51.6502 157.036 48.6667 148.889C47.8028 146.53 47.5824 145.162 50 144.222C53.0253 143.046 59.5074 172.089 60.2222 176C61.0359 180.451 64.3567 185.214 59 187" stroke="black" stroke-width="3" stroke-linecap="round"/>
<path d="M41 69C44.2564 70.2212 42 96.2059 42 98.7778C42 109.237 44.8246 118.031 46.5556 128.111C49.7946 146.974 51 165.51 51 184.778C51 189.735 49.4685 198.792 52 203.222C55.5684 209.467 57.0408 198.383 56.7778 195.556C56.3355 190.801 56.1226 183.875 53.4444 179.667C53.1539 179.21 50.2469 176 53 176C54.4924 176 53 193.996 53 195.944C53 201.647 73.3563 199 78.1111 199C82.1481 199 86.1852 199 90.2222 199C104.296 199 118.558 199.704 132.611 198.944C140.261 198.531 147.82 196 155.5 196C160.167 196 164.833 196 169.5 196C173.269 196 179 197.565 179 192.5C179 184.17 176 175.966 176 167.5C176 165.095 172.811 162.906 171 162" stroke="black" stroke-width="3" stroke-linecap="round"/>
<path d="M177 64C171.324 64 174.069 73.3276 175.056 77.1111C177.234 85.4616 177.883 94.2647 178 102.889C178.349 128.721 180.947 154.824 178 180.611C177.715 183.105 178.906 194.794 174.778 194C169.908 193.064 172.108 175.924 172.222 172.889C172.501 165.513 174.089 158.401 175 151.111C177.069 134.556 176 118.989 176 102.333C176 92.1357 176.609 82.1667 177 72C177.267 65.054 179 58.4852 179 51.5C179 48.468 177.92 52.0194 177.778 53.1111C176.859 60.1876 174.871 66.9476 173.611 73.9444C171.343 86.5441 173 100.329 173 113.111C173 123.167 173 133.222 173 143.278C173 151.037 174.893 158.752 173.778 166.556C172.952 172.337 172 178.081 172 183.944C172 186.13 170.903 186 169 186" stroke="black" stroke-width="3" stroke-linecap="round"/>
<path d="M40 59C43.3542 59 43.8861 62.9766 44.4444 65.6667C47.2685 79.2735 47.7138 93.6181 49 107.444C50.3014 121.434 54 135.461 54 149.5C54 161.676 57 173.86 57 186C57 196.467 50 165.856 50 155.389C50 145.743 51 136.128 51 126.444C51 116.162 52 105.793 52 95.4444C52 88.9373 48 83.3363 48 77" stroke="black" stroke-width="3" stroke-linecap="round"/>
<path d="M60 182C59.6785 186.823 55.3786 197.295 58.5556 201.833C61.5244 206.075 61 200.116 61 198.222C61 196.085 61.7986 192.241 60.4444 190.5C57.3735 186.552 53.3684 193.257 55.5556 195.444C57.9604 197.849 60.9093 198 64.2222 198C78.0762 198 91.0746 199.589 104.722 200.889C114.964 201.864 126.811 200.683 137 199.778C140.562 199.461 150 198.853 150 194" stroke="black" stroke-width="3" stroke-linecap="round"/>
<path d="M123 72C124.679 72.6296 124.477 79.2347 125 81C126.69 86.7051 126 92.9472 126 98.8333C126 109.44 125 119.948 125 130.5C125 137.736 124.843 144.989 125 152.222C125.08 155.915 127 159.069 127 162.722C127 165.852 126.236 169.354 128 172" stroke="black" stroke-width="3" stroke-linecap="round"/>
<path d="M86 69C81.7555 69.5306 86.5776 124.199 88.5555 132.111C91.2808 143.012 92.1399 153.839 94 165" stroke="black" stroke-width="3" stroke-linecap="round"/>
<path d="M20 73C11.1067 64.1067 1.68729 53.3567 2.00001 40.2222C2.06679 37.4176 3.75849 36.4925 5.44446 34.5C6.42249 33.3442 6.36197 31.0825 7.22223 30.2222C9.12339 28.3211 20.5821 30 22.7778 30C60.8101 30 98.7654 32 136.833 32C143.981 32 151.13 32 158.278 32C168.95 32 179.366 30 189.944 30C191.389 30 200.889 30.9417 200.889 28.6111C200.889 26.1407 200.218 33.6284 199 35.7778C197.922 37.6798 196.731 39.5966 195.556 41.4445C191.5 47.8172 193 57.2685 193 64.5C193 69.9815 193 53.5371 193 48.0556C193 45.0077 192.644 39.1186 196 38" stroke="black" stroke-width="3" stroke-linecap="round"/>
<path d="M17 64C18.3914 64.2783 19.8585 66.6846 19.4445 66.3889C16.6032 64.3594 15.3657 59.5144 14 56.5556C10.3275 48.5985 4.74223 41.726 9.94447 33.0556C13.2209 27.5948 11.7479 27.3939 18.7778 26.2222C30.0663 24.3408 42.5485 26 54 26" stroke="black" stroke-width="3" stroke-linecap="round"/>
<path d="M55 27C50.5766 22.5766 45.6671 16.8065 43.2222 11C42.0978 8.32944 53.2022 7.36088 54.5556 6.99999C61.8499 5.05484 69.8456 5.99999 77.3333 5.99999C87.2407 5.99999 97.1481 5.99999 107.056 5.99999C121.218 5.99999 139.029 8.29581 152.778 4.22221C154.28 3.7771 156.003 3.99999 157.556 3.99999C159.068 3.99999 167.736 3.98689 167.389 4.6111C163.542 11.5356 158.48 18.0405 155 25" stroke="black" stroke-width="3" stroke-linecap="round"/>
</svg>
